#N canvas 826 318 833 670 10;
#X obj 143 590 outlet~;
#X obj 125 454 vline~;
#X obj 87 28 inlet;
#X obj 147 564 gain~;
#X obj 87 50 route float a d s r gain thresh;
#N canvas 104 235 826 753 adsr_engine 0;
#X obj 57 65 inlet;
#X obj 180 662 outlet;
#X obj 150 52 inlet;
#X obj 300 32 inlet;
#X obj 458 41 inlet;
#X obj 587 78 inlet;
#X obj 725 77 inlet;
#X msg 574 332 0 5;
#X obj 124 281 t b b b b b;
#X obj 228 331 i;
#X obj 307 391 pack 0 0 0;
#X obj 18 140 bng 25 250 50 0 empty empty empty 17 7 0 10 -262144 -1
-1;
#X text 49 144 attack phase;
#X obj 144 87 bng 25 250 50 0 empty empty empty 17 7 0 10 -262144 -1
-1;
#X text 175 91 release phase;
#X obj 140 447 i;
#X obj 239 429 zl reg;
#X text 293 11 attack;
#X text 450 16 decay;
#X text 587 61 sustain;
#X text 721 59 release;
#X msg 139 470 0 \$1;
#X msg 227 354 1 \$1 5;
#X obj 372 364 + 5;
#X obj 446 126 t b f;
#X obj 327 127 t b f;
#X obj 297 66 expr pow(2 \, 12 * $f1);
#X floatatom 297 92 10 0 0 0 - - -;
#X floatatom 453 100 10 0 0 0 - - -;
#X floatatom 573 115 10 0 0 0 - - -;
#X floatatom 642 173 10 0 0 0 - - -;
#X obj 445 70 expr pow(2 \, 12 * $f1);
#X obj 666 112 expr pow(2 \, 12 * $f1);
#X connect 0 0 11 0;
#X connect 2 0 13 0;
#X connect 3 0 26 0;
#X connect 4 0 31 0;
#X connect 5 0 29 0;
#X connect 6 0 32 0;
#X connect 7 0 1 0;
#X connect 8 2 16 0;
#X connect 8 3 9 0;
#X connect 8 4 7 0;
#X connect 9 0 22 0;
#X connect 10 0 16 1;
#X connect 11 0 8 0;
#X connect 13 0 15 0;
#X connect 15 0 21 0;
#X connect 16 0 1 0;
#X connect 21 0 1 0;
#X connect 22 0 1 0;
#X connect 23 0 10 2;
#X connect 24 0 10 0;
#X connect 24 1 10 1;
#X connect 25 0 10 0;
#X connect 25 1 23 0;
#X connect 26 0 27 0;
#X connect 27 0 25 0;
#X connect 27 0 9 1;
#X connect 28 0 24 0;
#X connect 29 0 10 0;
#X connect 30 0 15 1;
#X connect 31 0 28 0;
#X connect 32 0 30 0;
#X restore 120 429 pd adsr_engine;
#X obj 59 318 > 0;
#X obj 87 374 sel 0 1;
#X obj 93 350 change;
#X floatatom 146 383 10 0 0 0 - - -;
#X floatatom 170 358 10 0 0 0 - - -;
#X floatatom 250 330 10 0 0 0 - - -;
#X floatatom 290 304 10 0 0 0 - - -;
#X floatatom 59 92 5 0 0 0 - - -;
#X obj 447 21 loadbang;
#X obj 338 130 float \$2;
#X obj 401 130 float \$3;
#X obj 464 130 float \$4;
#X obj 539 130 float \$5;
#X obj 277 130 float \$1;
#X obj 604 130 float \$6;
#X obj 377 333 / 127;
#X obj 135 535 gain~;
#X floatatom 188 531 10 0 0 0 - - -;
#X floatatom 74 290 10 0 0 0 - - -;
#X text 334 417 arguments are: 1=gain \, 2=attack \, 3=decay \, 4=sustain
\, 5=release \, 6=threshold;
#X floatatom 341 366 10 0 0 0 - - -;
#X obj 380 291 sel 0;
#X text 330 456 Messages:;
#X text 338 474 float: triggers envelope;
#X text 338 492 a \, d \, s \, r: control envelope shape;
#X text 338 510 gain: overall envelope level;
#X text 338 528 thresh: determines the threshold for the float-trigger.
defaults to 0 (so any float above zero will trigger the envelope).
;
#X connect 1 0 22 0;
#X connect 2 0 4 0;
#X connect 3 0 0 0;
#X connect 4 0 13 0;
#X connect 4 1 9 0;
#X connect 4 2 10 0;
#X connect 4 3 11 0;
#X connect 4 4 12 0;
#X connect 4 5 23 0;
#X connect 4 6 24 0;
#X connect 5 0 1 0;
#X connect 6 0 8 0;
#X connect 7 0 5 1;
#X connect 7 1 5 0;
#X connect 8 0 7 0;
#X connect 9 0 5 2;
#X connect 10 0 5 3;
#X connect 11 0 5 4;
#X connect 12 0 5 5;
#X connect 13 0 6 0;
#X connect 13 0 27 0;
#X connect 14 0 15 0;
#X connect 14 0 16 0;
#X connect 14 0 17 0;
#X connect 14 0 19 0;
#X connect 14 0 20 0;
#X connect 14 0 18 0;
#X connect 15 0 9 0;
#X connect 16 0 10 0;
#X connect 17 0 11 0;
#X connect 18 0 12 0;
#X connect 19 0 23 0;
#X connect 20 0 24 0;
#X connect 21 0 26 0;
#X connect 22 0 3 0;
#X connect 23 0 3 1;
#X connect 24 0 6 1;
#X connect 26 0 22 1;
#X connect 27 1 21 0;
