#N canvas 819 345 600 552 10;
#X obj 38 278 inlet~;
#X obj 92 322 *~;
#X obj 174 409 outlet~;
#X obj 108 299 vline~;
#X obj 107 29 inlet;
#X obj 178 376 gain~;
#N canvas 99 132 826 753 adsr_engine 0;
#X obj 57 65 inlet;
#X obj 180 662 outlet;
#X obj 270 185 inlet;
#X obj 396 192 inlet;
#X msg 574 332 0 5;
#X obj 124 281 t b b b b b;
#X obj 228 331 i;
#X obj 278 457 pack 0 0 0;
#X obj 18 140 bng 25 250 50 0 empty empty empty 17 7 0 10 -262144 -1
-1;
#X text 49 144 attack phase;
#X text 263 164 attack;
#X text 388 167 decay;
#X msg 227 354 1 \$1 5;
#X obj 372 364 + 5;
#X connect 0 0 8 0;
#X connect 2 0 6 1;
#X connect 2 0 13 0;
#X connect 3 0 7 1;
#X connect 4 0 1 0;
#X connect 5 2 7 0;
#X connect 5 3 6 0;
#X connect 5 4 4 0;
#X connect 6 0 12 0;
#X connect 7 0 1 0;
#X connect 8 0 5 0;
#X connect 12 0 1 0;
#X connect 13 0 7 2;
#X restore 109 270 pd adsr_engine;
#X floatatom 132 129 10 0 0 0 - - -;
#X floatatom 164 99 10 0 0 0 - - -;
#X obj 107 51 route bang a d gain float;
#X obj 237 154 > 0;
#X obj 237 180 sel 1;
#X obj 104 242 bng 15 250 50 0 empty empty empty 17 7 0 10 -262144
-1 -1;
#X obj 354 22 loadbang;
#X obj 352 78 float \$2;
#X obj 293 78 float \$3;
#X obj 413 74 float \$1;
#X connect 0 0 1 0;
#X connect 1 0 5 0;
#X connect 3 0 1 1;
#X connect 4 0 9 0;
#X connect 5 0 2 0;
#X connect 6 0 3 0;
#X connect 7 0 6 1;
#X connect 8 0 6 2;
#X connect 9 0 12 0;
#X connect 9 1 7 0;
#X connect 9 2 8 0;
#X connect 9 3 5 1;
#X connect 9 4 10 0;
#X connect 10 0 11 0;
#X connect 11 0 12 0;
#X connect 12 0 6 0;
#X connect 13 0 14 0;
#X connect 13 0 15 0;
#X connect 13 0 16 0;
#X connect 14 0 7 0;
#X connect 15 0 8 0;
#X connect 16 0 5 1;
