#N canvas 716 51 908 937 10;
#X obj 25 682 *~ 0;
#X obj 253 637 *~ 0;
#X obj 84 680 *~ 1;
#X obj 301 640 *~ 1;
#X obj 186 146 expr 1 - $f1;
#X obj 84 723 +~;
#X obj 288 678 +~;
#X obj 138 678 *~;
#X obj 354 640 *~;
#X floatatom 72 56 10 0 0 0 - - -;
#X obj 360 364 *~ 0.95;
#X obj 76 108 * 0.95;
#X obj 342 274 * 0.95;
#X obj 346 247 t b f;
#X floatatom 166 120 10 0 0 0 - - -;
#X text 236 119 delay mix;
#X obj 198 65 limit 0 0.99 0;
#X msg 94 82 delay_ms $f1;
#X obj 466 175 inlet~;
#X text 514 174 Ext Delay Mod;
#X obj 54 136 sig~;
#X obj 138 -29 inlet;
#X text 180 -30 Control Input;
#X obj 86 28 expr (490 * $f1) + 10;
#X obj 542 673 outlet;
#X obj 173 609 inlet~;
#X obj 388 573 inlet~;
#X obj 77 760 outlet~;
#X obj 313 724 outlet~;
#X obj 43 604 vd~ \$1;
#X obj 162 707 delwrite~ \$1 2000;
#X obj 274 567 vd~ \$2;
#X obj 382 675 delwrite~ \$2 2000;
#X obj 138 -4 route del del_mix del_fb delmod_amt;
#X connect 0 0 5 0;
#X connect 1 0 6 0;
#X connect 2 0 5 0;
#X connect 3 0 6 0;
#X connect 4 0 3 1;
#X connect 4 0 2 1;
#X connect 5 0 27 0;
#X connect 6 0 28 0;
#X connect 7 0 30 0;
#X connect 8 0 32 0;
#X connect 9 0 11 0;
#X connect 9 0 20 0;
#X connect 9 0 17 0;
#X connect 10 0 29 0;
#X connect 10 0 31 0;
#X connect 11 0 12 0;
#X connect 12 0 10 1;
#X connect 13 0 12 0;
#X connect 13 1 12 1;
#X connect 14 0 4 0;
#X connect 14 0 0 1;
#X connect 14 0 1 1;
#X connect 16 0 8 1;
#X connect 16 0 7 1;
#X connect 17 0 24 0;
#X connect 18 0 10 0;
#X connect 20 0 29 0;
#X connect 20 0 31 0;
#X connect 21 0 33 0;
#X connect 23 0 9 0;
#X connect 25 0 2 0;
#X connect 25 0 30 0;
#X connect 26 0 3 0;
#X connect 26 0 32 0;
#X connect 29 0 0 0;
#X connect 29 0 7 0;
#X connect 31 0 8 0;
#X connect 31 0 1 0;
#X connect 33 0 23 0;
#X connect 33 1 14 0;
#X connect 33 2 16 0;
#X connect 33 3 13 0;
