#N canvas 779 51 454 503 10;
#X obj 47 36 inlet;
#X obj 62 123 mtof;
#X obj 125 58 inlet;
#X obj 180 140 expr pow(2 \, (8*$f1) - 4);
#X text 43 17 note (0-127);
#X obj 20 181 sig~;
#X obj 143 252 osc~;
#X obj 159 189 t b f;
#X obj 143 226 * 1;
#X text 124 38 harmonicity (0-1);
#X obj 217 212 inlet;
#X text 216 192 fm (0-1);
#X obj 122 288 *~;
#X obj 77 226 * 0.99;
#X obj 118 445 outlet~;
#X obj 281 18 loadbang;
#X obj 253 85 float \$2;
#X obj 352 143 float \$3;
#X obj 180 91 float \$1;
#X obj 116 409 osc~;
#X floatatom 213 252 10 0 0 0 - - -;
#X floatatom 168 165 10 0 0 0 - - -;
#X obj 208 278 sig~;
#X obj 250 298 inlet~;
#X text 247 278 external fm mod;
#X obj 206 320 +~;
#X obj 128 372 *~;
#X connect 0 0 1 0;
#X connect 1 0 5 0;
#X connect 1 0 8 0;
#X connect 1 0 13 0;
#X connect 2 0 3 0;
#X connect 3 0 21 0;
#X connect 5 0 19 0;
#X connect 6 0 12 0;
#X connect 7 0 8 0;
#X connect 7 1 8 1;
#X connect 8 0 6 0;
#X connect 10 0 20 0;
#X connect 12 0 26 0;
#X connect 13 0 12 1;
#X connect 15 0 16 0;
#X connect 15 0 17 0;
#X connect 15 0 18 0;
#X connect 16 0 3 0;
#X connect 18 0 1 0;
#X connect 19 0 14 0;
#X connect 20 0 22 0;
#X connect 21 0 7 0;
#X connect 22 0 25 0;
#X connect 23 0 25 1;
#X connect 25 0 26 1;
#X connect 26 0 19 0;
