#N canvas 645 78 840 784 10;
#X obj 2 413 inlet;
#X obj 48 174 inlet;
#X text -1 392 note (0-127) triggers output;
#X text 45 154 velocity (0-127);
#X obj 330 114 inlet;
#X text 327 93 fm (0-1);
#X obj 287 35 inlet;
#X text 284 14 harmonicity (0-1);
#X obj 177 176 inlet;
#X text 158 158 attack (ms);
#X obj 200 244 inlet;
#X text 200 223 decay (ms);
#X obj 241 172 inlet;
#X text 241 150 sustain (0-1);
#X obj 261 261 inlet;
#X text 261 240 release (ms);
#X obj 2 562 fm_osc~ \$1 \$7 \$8;
#X msg 177 198 a \$1;
#X msg 200 267 d \$1;
#X msg 241 196 s \$1;
#X msg 261 284 r \$1;
#X obj -2 669 outlet~;
#X obj 104 197 inlet;
#X text 101 177 gain (0-1);
#X msg 104 219 gain \$1;
#X text 418 663 arguments are 1=note \, 2=gain \, 3=attack \, 4=decay
\, 5=sustain \, 6=release \, 7=fm \, 8=harmonicity \, 9=env_mode;
#X obj 330 137 s \$0-fm;
#X obj 287 58 s \$0-harm;
#X obj 76 449 r \$0-fm;
#X obj 49 420 r \$0-harm;
#X obj 118 570 r \$0-ampenv;
#X obj 190 343 s \$0-ampenv;
#X obj 23 596 outlet~;
#X text 344 727 outlets are ampenv-modulated and raw \, respectively
;
#X obj 113 510 r \$0-modenv;
#X obj 456 187 inlet;
#X text 437 169 attack (ms);
#X obj 479 255 inlet;
#X text 479 234 decay (ms);
#X obj 520 183 inlet;
#X text 520 161 sustain (0-1);
#X obj 540 272 inlet;
#X text 540 251 release (ms);
#X msg 456 209 a \$1;
#X msg 479 278 d \$1;
#X msg 520 207 s \$1;
#X msg 540 295 r \$1;
#X obj 383 208 inlet;
#X text 380 188 gain (0-1);
#X msg 383 230 gain \$1;
#X text 428 136 ## MODULATOR ENVELOPE ##;
#X text 102 107 ## CARRIER ENVELOPE ##;
#X obj 469 354 s \$0-modenv;
#X obj 115 595 adsr~ \$2 \$3 \$4 \$5 \$6;
#X obj 9 631 *~;
#X obj 103 534 adsr~ \$9 \$10 \$11 \$12 \$13;
#X obj 109 344 s \$0-modenv;
#X connect 0 0 16 0;
#X connect 1 0 31 0;
#X connect 1 0 56 0;
#X connect 4 0 26 0;
#X connect 6 0 27 0;
#X connect 8 0 17 0;
#X connect 10 0 18 0;
#X connect 12 0 19 0;
#X connect 14 0 20 0;
#X connect 16 0 32 0;
#X connect 16 0 54 0;
#X connect 17 0 31 0;
#X connect 18 0 31 0;
#X connect 19 0 31 0;
#X connect 20 0 31 0;
#X connect 22 0 24 0;
#X connect 24 0 31 0;
#X connect 28 0 16 2;
#X connect 29 0 16 1;
#X connect 30 0 53 0;
#X connect 34 0 55 0;
#X connect 35 0 43 0;
#X connect 37 0 44 0;
#X connect 39 0 45 0;
#X connect 41 0 46 0;
#X connect 43 0 52 0;
#X connect 44 0 52 0;
#X connect 45 0 52 0;
#X connect 46 0 52 0;
#X connect 47 0 49 0;
#X connect 49 0 52 0;
#X connect 53 0 54 1;
#X connect 54 0 21 0;
#X connect 55 0 16 3;
