#N canvas 773 394 450 300 10;
#X obj 161 63 samplerate~;
#X obj 30 27 inlet;
#X obj 30 58 route samples;
#X obj 74 237 outlet;
#X obj 160 21 loadbang;
#X obj 30 132 pack 44100 44100;
#X obj 52 189 expr $f2 / $f1;
#X obj 30 87 sel 0;
#X text 175 114 Converts samples to hz;
#X connect 0 0 5 1;
#X connect 1 0 2 0;
#X connect 2 0 7 0;
#X connect 4 0 0 0;
#X connect 5 0 6 0;
#X connect 6 0 3 0;
#X connect 7 1 5 0;
