#N canvas 537 264 797 529 10;
#X obj 61 26 inlet~;
#X obj 56 318 outlet~;
#X obj 57 286 *~;
#X obj 161 143 line~;
#X obj 159 19 inlet;
#X msg 159 77 \$1 10;
#X connect 0 0 2 0;
#X connect 2 0 1 0;
#X connect 3 0 2 1;
#X connect 4 0 5 0;
#X connect 5 0 3 0;
