#N canvas 469 256 717 732 10;
#X obj 118 381 osc~;
#X obj 156 366 phasor~;
#X obj 62 40 inlet;
#X text 104 39 Control Input;
#X obj 75 268 mtof;
#X obj 234 314 noise~;
#X obj 220 458 samphold~;
#X obj 75 293 sig~;
#X obj 277 60 inlet~;
#X obj 157 189 *~;
#X obj 165 300 * 0.98;
#X obj 155 326 *~;
#X obj 198 582 +~;
#X obj 128 97 sig~;
#X obj 196 544 gain3~;
#X obj 196 615 outlet~;
#X obj 62 65 route f fm offset wave fmode;
#X obj 18 188 expr ($f1*127) - $i2;
#X obj 70 144 * 127;
#X connect 0 0 14 0;
#X connect 1 0 6 1;
#X connect 1 0 14 1;
#X connect 2 0 16 0;
#X connect 4 0 7 0;
#X connect 4 0 10 0;
#X connect 5 0 6 0;
#X connect 6 0 14 2;
#X connect 7 0 0 0;
#X connect 7 0 1 0;
#X connect 8 0 9 0;
#X connect 9 0 11 0;
#X connect 10 0 11 1;
#X connect 11 0 0 0;
#X connect 11 0 1 0;
#X connect 12 0 15 0;
#X connect 13 0 12 1;
#X connect 14 0 12 0;
#X connect 16 0 17 0;
#X connect 16 1 9 1;
#X connect 16 2 13 0;
#X connect 16 3 14 3;
#X connect 16 4 18 0;
#X connect 17 0 4 0;
#X connect 18 0 17 1;
