#N canvas 592 220 691 592 10;
#X obj 239 126 samplerate~;
#X obj 239 70 loadbang;
#X obj 130 158 z~ 1;
#X obj 111 186 -~;
#X obj 137 218 *~;
#X obj 239 98 bng 15 250 50 0 empty empty empty 17 7 0 10 -262144 -1
-1;
#X obj 239 154 sig~;
#X obj 159 388 phasor~ 440;
#X obj 158 363 *~;
#X obj 94 340 wrap~;
#X obj 103 294 *~;
#X obj 303 436 outlet~;
#X obj 62 494 outlet~;
#X obj 76 113 inlet~;
#X obj 222 237 inlet~;
#X text 276 238 rate;
#X text 126 115 phasor;
#X text 359 437 free;
#X text 118 493 locked;
#X connect 0 0 6 0;
#X connect 1 0 5 0;
#X connect 2 0 3 1;
#X connect 3 0 4 0;
#X connect 4 0 8 0;
#X connect 5 0 0 0;
#X connect 6 0 4 1;
#X connect 7 0 11 0;
#X connect 8 0 7 0;
#X connect 9 0 12 0;
#X connect 10 0 9 0;
#X connect 13 0 2 0;
#X connect 13 0 3 0;
#X connect 13 0 10 0;
#X connect 14 0 8 1;
#X connect 14 0 10 1;
