#N canvas 684 105 524 752 10;
#X obj 78 131 mtof;
#X obj 126 206 * 1;
#X obj 130 140 t b f;
#X obj 210 491 *~;
#X obj 292 252 * 1;
#X obj 296 221 t b f;
#X obj 294 313 osc~;
#X floatatom 286 278 12 0 0 0 - - -;
#X floatatom 25 206 12 0 0 0 - - -;
#X obj 34 257 osc~;
#X obj 110 34 inlet;
#X obj 130 108 expr pow(2 \, (8 * $f1) - 4);
#X obj 301 191 expr pow(2 \, (8 * $f1) - 4);
#X obj 117 244 osc~;
#X obj 53 308 *~;
#X obj 152 659 outlet~;
#X obj 103 64 route f fr1 fr2 rm1 rm2;
#X obj 36 370 xfade~;
#X obj 154 566 xfade~;
#X obj 157 605 *~;
#X obj 372 392 inlet~;
#X text 368 369 ext ring modulation;
#X obj 111 277 +~ 1;
#X obj 288 347 +~ 1;
#X obj 204 517 *~ 0.5;
#X obj 49 343 *~ 0.5;
#X connect 0 0 1 0;
#X connect 0 0 4 0;
#X connect 0 0 8 0;
#X connect 1 0 13 0;
#X connect 2 0 1 0;
#X connect 2 1 1 1;
#X connect 3 0 24 0;
#X connect 4 0 7 0;
#X connect 5 0 4 0;
#X connect 5 1 4 1;
#X connect 6 0 23 0;
#X connect 7 0 6 0;
#X connect 8 0 9 0;
#X connect 9 0 14 0;
#X connect 9 0 17 0;
#X connect 10 0 16 0;
#X connect 11 0 2 0;
#X connect 12 0 5 0;
#X connect 13 0 22 0;
#X connect 14 0 25 0;
#X connect 16 0 0 0;
#X connect 16 1 11 0;
#X connect 16 2 12 0;
#X connect 16 3 17 2;
#X connect 16 4 18 2;
#X connect 17 0 18 0;
#X connect 17 0 3 0;
#X connect 18 0 19 0;
#X connect 19 0 15 0;
#X connect 20 0 19 1;
#X connect 22 0 14 1;
#X connect 23 0 3 1;
#X connect 24 0 18 1;
#X connect 25 0 17 1;
