#N canvas 4 51 1014 937 10;
#X obj 140 96 soundfiler;
#X floatatom 162 136 10 0 0 0 - - -;
#X floatatom 205 323 10 0 0 0 - - -;
#X msg 162 163 samples \$1;
#X obj 169 192 frq;
#X obj 181 296 sel 0;
#X obj 295 236 expr $f1 * ($f2 - $f3);
#X obj 315 87 expr $f1 * ($f2 - 2);
#X obj 201 269 expr ((($f3*2) * $f1) - $f3) * $f2;
#X obj 174 217 t b f;
#X obj 275 88 t b f;
#X obj 324 114 t b f;
#X obj 241 19 inlet;
#X obj 752 35 table \$1 44100;
#X obj 566 755 outlet;
#X obj 270 851 outlet~;
#X obj 425 846 outlet~;
#X obj 289 675 *~ 0.25;
#X obj 401 666 *~ 0.25;
#X obj 299 802 lop~;
#X obj 411 800 lop~;
#X obj 294 761 hip~;
#X obj 409 757 hip~;
#X text 77 135 sample length;
#X text 114 324 playback speed;
#X msg 37 263 samp_length $i1;
#X obj 257 564 tabread4~ \$1;
#X text 283 18 Control Input;
#X obj 595 83 inlet~;
#X obj 620 106 inlet~;
#X text 668 105 Ext Sample Length Mod;
#X text 643 82 Ext Sample Offset Mod;
#X obj 318 482 +~;
#X obj 330 411 sig~;
#X obj 284 327 sig~;
#X obj 267 435 *~;
#X obj 497 491 expr pow(2 \, $f1*11);
#X obj 643 514 expr pow(2 \, $f1*12);
#X obj 208 380 phasor~;
#X obj 593 44 inlet~;
#X obj 204 354 sig~;
#X text 641 43 Freq Mod;
#X obj 241 44 route sf sp sp_range sa_offset sa_length vol lp hp fm
;
#X obj 518 120 *~ 0;
#X obj 239 354 *~ 1;
#X connect 0 0 1 0;
#X connect 1 0 3 0;
#X connect 1 0 6 1;
#X connect 1 0 7 1;
#X connect 1 0 25 0;
#X connect 2 0 40 0;
#X connect 2 0 44 1;
#X connect 3 0 4 0;
#X connect 4 0 9 0;
#X connect 5 1 2 0;
#X connect 6 0 3 0;
#X connect 6 0 34 0;
#X connect 7 0 11 0;
#X connect 7 0 33 0;
#X connect 8 0 5 0;
#X connect 9 0 8 0;
#X connect 9 1 8 1;
#X connect 10 0 8 0;
#X connect 10 1 8 2;
#X connect 11 0 6 0;
#X connect 11 1 6 2;
#X connect 12 0 42 0;
#X connect 17 0 21 0;
#X connect 18 0 22 0;
#X connect 19 0 15 0;
#X connect 20 0 16 0;
#X connect 21 0 19 0;
#X connect 22 0 20 0;
#X connect 25 0 14 0;
#X connect 26 0 18 0;
#X connect 26 0 17 0;
#X connect 28 0 32 1;
#X connect 29 0 35 1;
#X connect 32 0 26 0;
#X connect 33 0 32 1;
#X connect 34 0 35 1;
#X connect 35 0 32 0;
#X connect 36 0 22 1;
#X connect 36 0 21 1;
#X connect 37 0 20 1;
#X connect 37 0 19 1;
#X connect 38 0 35 0;
#X connect 39 0 43 0;
#X connect 40 0 38 0;
#X connect 42 0 0 0;
#X connect 42 1 8 0;
#X connect 42 2 10 0;
#X connect 42 3 7 0;
#X connect 42 4 6 0;
#X connect 42 5 17 1;
#X connect 42 5 18 1;
#X connect 42 6 37 0;
#X connect 42 7 36 0;
#X connect 42 8 43 1;
#X connect 43 0 44 0;
#X connect 44 0 38 0;
