#N canvas 778 336 668 434 10;
#X obj 45 29 inlet~;
#X obj 190 40 inlet~;
#X obj 263 97 inlet;
#X obj 58 201 gain~;
#X obj 125 261 outlet~;
#X obj 171 199 gain~;
#X obj 81 152 expr 1 - $f1;
#X connect 0 0 3 0;
#X connect 1 0 5 0;
#X connect 2 0 6 0;
#X connect 2 0 5 1;
#X connect 3 0 4 0;
#X connect 5 0 4 0;
#X connect 6 0 3 1;
